<?xml version="1.0" standalone="no"?>
<!DOCTYPE svg PUBLIC "-//W3C//DTD SVG 20010904//EN"
 "http://www.w3.org/TR/2001/REC-SVG-20010904/DTD/svg10.dtd">
<svg version="1.0" xmlns="http://www.w3.org/2000/svg"
 width="300.000000pt" height="300.000000pt" viewBox="0 0 300.000000 300.000000"
 preserveAspectRatio="xMidYMid meet">

<g transform="translate(0.000000,300.000000) scale(0.100000,-0.100000)"
fill="#000000" stroke="none">
<path d="M1325 2664 c-315 -59 -579 -257 -719 -539 -74 -148 -99 -259 -100
-440 0 -126 3 -165 23 -240 45 -176 141 -346 266 -470 480 -481 1292 -349
1597 260 284 565 -28 1253 -639 1411 -126 33 -311 41 -428 18z m785 -333 l103
-6 54 -70 c68 -90 136 -227 165 -335 19 -72 23 -110 23 -245 0 -138 -3 -171
-24 -242 -13 -46 -28 -83 -35 -83 -6 0 -20 7 -30 15 -13 10 -43 15 -81 15 -53
0 -66 4 -90 26 -24 22 -33 24 -69 18 -22 -3 -57 -12 -78 -20 -33 -11 -38 -11
-43 5 -10 32 -48 45 -88 30 -33 -12 -38 -10 -113 34 -92 53 -142 68 -221 67
-32 -1 -77 2 -101 5 -29 5 -55 2 -82 -9 -52 -21 -133 -21 -150 -1 -10 13 -9
15 9 15 12 0 19 5 16 10 -3 6 3 10 15 10 12 0 18 5 15 10 -4 6 6 11 22 11 17
1 21 3 11 6 -30 8 -20 23 15 24 26 0 28 2 12 8 -15 6 -9 10 30 16 l50 8 -33
10 c-52 16 -106 -6 -168 -68 -29 -29 -56 -65 -60 -79 -3 -14 -12 -26 -20 -26
-20 0 -18 8 13 48 15 20 21 32 15 28 -7 -4 -12 -2 -12 4 0 6 6 13 14 16 8 3
12 12 9 20 -3 7 2 16 10 20 9 3 13 12 10 21 -4 11 -2 14 5 9 7 -4 12 -1 12 9
0 8 8 19 18 22 9 4 24 14 32 22 26 25 -50 4 -78 -22 -31 -29 -62 -89 -63 -124
-1 -23 -4 -20 -15 18 -16 53 -54 99 -81 99 -16 -1 -15 -3 5 -20 13 -11 25 -25
26 -32 2 -7 8 -26 14 -41 7 -15 11 -31 10 -35 -1 -4 4 -18 11 -32 8 -14 -5 -3
-29 23 -73 82 -176 121 -243 93 -42 -17 -45 -22 -17 -29 11 -3 18 -2 16 2 -3
4 10 7 29 7 18 -1 31 -3 29 -6 -3 -2 10 -10 28 -17 l33 -13 -32 3 c-18 2 -30
0 -27 -5 3 -4 17 -8 32 -9 34 -1 114 -27 87 -28 -19 -1 -19 -1 1 -15 11 -8 33
-18 47 -21 15 -4 30 -12 33 -17 12 -20 -6 -19 -48 3 -89 46 -218 34 -248 -22
-11 -19 -10 -20 9 -9 12 6 21 8 21 5 0 -3 12 2 28 12 26 17 27 17 12 -2 -10
-12 -10 -16 -2 -11 7 4 18 3 25 -3 8 -6 18 -6 27 -1 13 9 13 10 0 11 -8 1 -19
1 -23 0 -5 -1 -6 3 -2 9 4 7 12 7 25 0 10 -5 25 -7 33 -4 8 3 18 1 22 -5 4 -7
-1 -9 -12 -5 -14 5 -15 4 -4 -4 10 -7 21 -7 34 0 14 7 22 6 31 -3 8 -9 7 -11
-7 -6 -11 4 -16 3 -12 -3 3 -6 25 -11 48 -11 40 -2 39 -2 -13 -9 -59 -7 -121
-35 -158 -70 -28 -27 -73 -22 -114 13 -25 20 -28 31 -43 157 -8 74 -15 174
-15 223 l0 87 24 -6 c18 -4 28 0 37 14 l13 21 30 -22 c23 -16 28 -17 24 -5 -5
11 -2 15 10 14 9 -2 18 -9 20 -17 3 -11 1 -11 -8 1 -10 13 -11 13 -7 0 2 -8 9
-15 16 -15 6 0 16 -7 22 -15 9 -12 10 -12 5 3 -4 12 -2 16 6 11 8 -5 9 -1 5
12 -7 18 -7 18 8 0 8 -11 15 -25 15 -30 0 -6 -5 -4 -11 4 -9 13 -10 13 -6 0 2
-8 9 -15 16 -15 7 0 19 -11 26 -25 17 -29 20 -9 4 23 -10 21 -10 21 5 3 12
-15 16 -16 16 -5 1 10 4 9 11 -4 6 -10 8 -25 5 -33 -3 -8 -2 -13 3 -9 5 3 12
-1 15 -7 3 -7 4 1 1 17 -3 24 1 20 21 -20 13 -27 22 -39 19 -25 -4 24 -4 23 7
-2 17 -41 31 -34 23 10 -13 69 -63 125 -147 163 -15 6 -25 15 -22 20 2 4 -4
12 -13 18 -23 13 -12 14 24 1 26 -9 27 -9 9 5 -11 8 -24 15 -30 15 -5 0 -7 3
-4 6 3 3 23 -2 43 -10 46 -20 56 -20 31 -1 -25 19 -18 19 28 0 47 -20 46 -11
-1 14 -53 28 -34 26 33 -4 63 -28 68 -29 59 -15 -8 13 1 13 28 -1 25 -13 15
-2 -27 29 -44 33 -22 26 42 -13 l57 -36 -39 36 c-50 45 -40 44 32 -1 55 -35
56 -35 32 -8 l-25 28 38 -27 c42 -32 46 -28 17 19 -31 50 -108 84 -190 84 -82
0 -169 -22 -236 -60 -29 -16 -55 -26 -58 -23 -18 19 1 35 72 57 72 23 75 25
52 35 -21 10 -19 11 20 6 52 -7 47 5 -7 15 -34 7 -31 8 27 10 58 2 61 4 30 11
-29 6 -25 7 23 5 31 -1 57 -1 57 0 0 2 -15 8 -32 14 -28 8 -24 9 30 6 66 -4
75 -1 40 14 -18 8 -12 9 27 6 l50 -5 -40 15 -40 14 38 -6 c21 -3 46 -7 55 -10
9 -3 1 4 -18 15 -38 22 -25 27 30 11 19 -6 48 -8 63 -4 23 5 26 8 16 21 -20
23 -85 53 -131 59 -110 15 -282 -87 -381 -226 -10 -14 -7 -5 7 20 13 25 22 53
21 63 -2 9 0 15 4 13 4 -3 13 4 20 16 7 11 8 18 3 14 -5 -3 -9 1 -9 8 0 8 7
12 15 8 10 -3 13 -1 8 6 -3 6 -2 13 4 17 6 4 7 11 4 17 -4 7 -2 8 4 4 7 -4 12
-3 12 3 0 5 7 17 16 25 12 12 12 16 2 16 -7 1 -2 7 12 15 14 8 21 15 15 15 -5
0 -3 5 5 11 11 8 4 9 -28 6 -27 -3 -54 -15 -69 -29 -30 -27 -73 -113 -73 -145
0 -39 -15 -25 -27 25 -13 55 -11 60 59 143 l51 61 597 -7 c329 -4 644 -10 700
-14z m-1033 -167 c-3 -3 -12 -4 -19 -1 -8 3 -5 6 6 6 11 1 17 -2 13 -5z m-30
-20 c-3 -3 -12 -4 -19 -1 -8 3 -5 6 6 6 11 1 17 -2 13 -5z m-347 -140 c0 -7
-6 -14 -12 -17 -12 -4 -58 75 -57 98 0 14 69 -66 69 -81z m27 4 c-3 -7 -5 -2
-5 12 0 14 2 19 5 13 2 -7 2 -19 0 -25z m-87 -29 c32 -20 33 -23 15 -29 -23
-8 -65 15 -65 36 0 19 9 18 50 -7z m431 -15 c17 -8 29 -18 26 -20 -3 -3 -20 4
-38 15 -40 25 -31 28 12 5z m-463 -61 c-10 -2 -26 -2 -35 0 -10 3 -2 5 17 5
19 0 27 -2 18 -5z m68 -46 c1 -1 4 -106 7 -232 l6 -230 -23 -11 c-13 -6 -37
-9 -54 -6 -28 4 -31 9 -48 70 -11 42 -19 120 -22 206 l-4 140 43 38 c34 29 50
37 69 32 14 -3 25 -6 26 -7z m39 -654 c4 -32 9 -67 12 -78 4 -14 2 -17 -5 -10
-14 14 -82 127 -82 137 0 4 15 8 34 8 l35 0 6 -57z m420 10 c-18 -124 -85
-373 -102 -373 -2 0 -36 21 -74 48 -76 52 -83 65 -144 257 -39 124 -52 113
151 115 l175 0 -6 -47z m296 35 c0 -10 2 -10 6 0 6 15 543 18 543 3 0 -18 -54
-52 -73 -47 -13 3 -34 -9 -66 -38 -25 -24 -57 -47 -71 -51 -42 -13 -100 -45
-100 -55 0 -5 25 -26 55 -46 l55 -37 108 7 c59 3 145 13 192 21 47 8 92 15
100 15 8 -1 -13 -27 -46 -58 -176 -163 -443 -255 -694 -238 -118 8 -208 29
-278 64 -47 24 -52 29 -47 52 18 71 36 196 41 290 3 58 7 111 10 118 5 17 264
17 265 0z m929 7 c0 -11 -33 -70 -62 -112 -17 -26 -37 -43 -49 -43 -17 0 -18
3 -7 20 16 26 4 36 -28 21 -35 -15 -44 -7 -44 41 0 25 -7 49 -17 60 -15 17
-12 18 95 18 62 0 112 -2 112 -5z m-300 -34 c0 -30 -39 -72 -79 -86 -85 -29
-83 15 4 60 67 36 75 39 75 26z m70 -93 c0 -10 -12 -10 -29 1 -9 6 -11 16 -6
31 l7 23 14 -24 c7 -13 13 -27 14 -31z m-250 -33 c-103 -13 -149 -12 -74 0 22
4 44 8 49 10 6 2 37 3 70 3 51 0 45 -2 -45 -13z m163 -2 c-7 -2 -19 -2 -25 0
-7 3 -2 5 12 5 14 0 19 -2 13 -5z m36 -19 c2 -2 -47 -3 -110 -2 -89 1 -103 3
-64 8 46 7 165 2 174 -6z"/>
<path d="M1805 2281 c-27 -16 -61 -41 -74 -55 l-24 -26 55 20 c84 29 127 34
176 17 37 -13 47 -13 85 0 47 17 91 12 173 -17 30 -10 54 -15 54 -12 0 4 -20
21 -43 39 -91 68 -135 78 -193 42 l-34 -21 -34 21 c-45 28 -82 26 -141 -8z"/>
<path d="M1342 2140 c-23 -17 -42 -32 -42 -34 0 -2 23 3 52 11 37 11 62 13 87
7 22 -6 50 -6 72 0 26 7 48 5 85 -7 l49 -16 -35 30 c-45 39 -77 46 -111 26
-24 -13 -30 -13 -46 -1 -29 22 -67 16 -111 -16z"/>
<path d="M2109 2060 c-19 -10 -42 -26 -50 -36 -13 -15 -12 -16 11 -8 31 11
256 12 290 1 24 -8 24 -7 -5 17 -45 38 -78 47 -111 30 -24 -13 -31 -13 -60 1
-38 18 -31 18 -75 -5z"/>
<path d="M512 897 c-34 -34 -62 -67 -62 -73 0 -22 122 -144 144 -144 13 0 44
23 80 59 51 52 57 62 46 76 -11 14 -20 9 -72 -41 l-59 -57 -45 44 c-24 24 -44
49 -44 55 0 7 25 35 56 63 47 43 54 54 44 66 -7 8 -15 15 -19 15 -4 0 -35 -28
-69 -63z"/>
<path d="M2377 904 c-26 -31 -47 -62 -47 -68 0 -15 42 -56 57 -56 5 0 29 23
52 50 44 53 58 60 67 35 7 -16 -53 -93 -73 -94 -18 -1 -27 -21 -15 -33 6 -6
16 -7 25 -2 20 12 107 118 107 132 0 13 -48 52 -65 52 -6 0 -29 -22 -51 -50
-43 -54 -43 -54 -63 -41 -11 7 -6 18 23 55 21 25 43 44 49 43 7 -1 12 5 12 13
0 34 -34 18 -78 -36z"/>
<path d="M2194 724 c-68 -46 -83 -59 -84 -67 0 -9 88 -127 95 -127 2 0 31 23
64 50 68 56 80 84 57 128 -26 50 -73 56 -132 16z m88 -21 c28 -25 22 -57 -17
-92 -20 -17 -40 -31 -45 -31 -4 0 -22 18 -40 40 l-31 39 42 31 c48 34 65 37
91 13z"/>
<path d="M741 654 c-45 -72 -47 -79 -27 -87 8 -3 19 5 26 19 8 13 16 24 20 24
3 0 30 -15 60 -34 29 -19 60 -32 67 -29 12 5 43 53 43 67 0 3 -33 28 -74 55
l-74 50 -41 -65z m109 -10 c43 -29 45 -31 30 -54 -7 -12 -13 -12 -32 -2 -49
27 -69 48 -62 65 8 23 18 22 64 -9z"/>
<path d="M986 536 c-20 -47 -36 -89 -36 -94 0 -9 30 -26 36 -20 1 2 19 43 39
92 29 71 34 91 23 97 -7 5 -16 9 -19 9 -4 0 -23 -38 -43 -84z"/>
<path d="M2022 612 c-10 -7 -9 -18 7 -55 12 -27 16 -47 10 -47 -6 0 -46 9 -90
20 -44 12 -84 18 -89 15 -5 -3 5 -38 22 -78 36 -85 31 -79 51 -72 13 6 13 12
-5 52 -11 24 -17 47 -14 50 3 4 42 -4 87 -16 49 -14 85 -19 91 -13 14 14 -54
154 -70 144z"/>
<path d="M1129 503 c-19 -51 -4 -64 104 -87 26 -6 37 -29 18 -40 -15 -9 -113
17 -118 31 -8 21 -33 15 -33 -7 0 -23 17 -31 108 -50 73 -15 82 -10 82 47 0
34 1 34 -102 59 -18 4 -28 13 -28 25 0 10 3 19 6 19 17 0 100 -24 109 -31 16
-15 37 -10 33 8 -2 12 -25 22 -73 35 -91 23 -94 23 -106 -9z"/>
<path d="M1690 503 c-9 -2 -29 -40 -45 -85 -17 -45 -31 -85 -33 -89 -2 -4 6
-5 17 -2 12 3 21 11 21 19 0 18 10 23 67 33 38 8 51 6 65 -6 9 -8 26 -13 37
-11 17 3 10 14 -47 74 -40 43 -73 70 -82 67z m38 -62 l21 -29 -35 -7 c-20 -3
-37 -5 -39 -3 -5 6 16 68 23 68 5 0 18 -13 30 -29z"/>
<path d="M1390 436 c0 -29 -3 -68 -6 -85 l-6 -31 86 0 c70 0 86 3 86 15 0 12
-14 15 -65 15 l-65 0 0 70 c0 56 -3 70 -15 70 -11 0 -15 -13 -15 -54z"/>
</g>
</svg>
